<svg width="726" height="691" viewBox="0 0 726 691" fill="none" xmlns="http://www.w3.org/2000/svg">
<path d="M422.5 349C422.5 387.371 390.502 418.5 351 418.5C311.498 418.5 279.5 387.371 279.5 349C279.5 310.629 311.498 279.5 351 279.5C390.502 279.5 422.5 310.629 422.5 349Z" stroke="#5F6268"/>
<path d="M462.5 348.5C462.5 408.132 412.595 456.5 351 456.5C289.405 456.5 239.5 408.132 239.5 348.5C239.5 288.868 289.405 240.5 351 240.5C412.595 240.5 462.5 288.868 462.5 348.5Z" stroke="#5F6268" stroke-opacity="0.8"/>
<path d="M494.5 346.5C494.5 423.807 430.042 486.5 350.5 486.5C270.958 486.5 206.5 423.807 206.5 346.5C206.5 269.193 270.958 206.5 350.5 206.5C430.042 206.5 494.5 269.193 494.5 346.5Z" stroke="#5F6268" stroke-opacity="0.6"/>
<path d="M534.5 342.5C534.5 443.556 450.342 525.5 346.5 525.5C242.658 525.5 158.5 443.556 158.5 342.5C158.5 241.444 242.658 159.5 346.5 159.5C450.342 159.5 534.5 241.444 534.5 342.5Z" stroke="#5F6268" stroke-opacity="0.4"/>
<path d="M606.5 340.5C606.5 474.125 491.466 582.5 349.5 582.5C207.534 582.5 92.5 474.125 92.5 340.5C92.5 206.875 207.534 98.5 349.5 98.5C491.466 98.5 606.5 206.875 606.5 340.5Z" stroke="#5F6268" stroke-opacity="0.2"/>
<path d="M710.5 339.5C710.5 526.703 551.583 678.5 355.5 678.5C159.417 678.5 0.5 526.703 0.5 339.5C0.5 152.297 159.417 0.5 355.5 0.5C551.583 0.5 710.5 152.297 710.5 339.5Z" stroke="#5F6268" stroke-opacity="0.08"/>
</svg>
