<svg width="823" height="910" viewBox="0 0 823 910" fill="none" xmlns="http://www.w3.org/2000/svg">
<path d="M540.892 467.732C540.892 519.277 499.85 561.046 449.241 561.046C398.631 561.046 357.589 519.277 357.589 467.732C357.589 416.187 398.631 374.418 449.241 374.418C499.85 374.418 540.892 416.187 540.892 467.732Z" stroke="#5F6268"/>
<path d="M592.088 467.062C592.088 547.102 528.126 611.974 449.24 611.974C370.355 611.974 306.393 547.102 306.393 467.062C306.393 387.022 370.355 322.149 449.24 322.149C528.126 322.149 592.088 387.022 592.088 467.062Z" stroke="#5F6268" stroke-opacity="0.8"/>
<path d="M633.044 464.381C633.044 568.108 550.458 652.18 448.601 652.18C346.744 652.18 264.157 568.108 264.157 464.381C264.157 360.654 346.744 276.582 448.601 276.582C550.458 276.582 633.044 360.654 633.044 464.381Z" stroke="#5F6268" stroke-opacity="0.6"/>
<path d="M684.24 459.021C684.24 594.576 576.439 704.448 443.481 704.448C310.523 704.448 202.722 594.576 202.722 459.021C202.722 323.465 310.523 213.593 443.481 213.593C576.439 213.593 684.24 323.465 684.24 459.021Z" stroke="#5F6268" stroke-opacity="0.4"/>
<path d="M776.392 456.34C776.392 635.55 629.068 780.84 447.321 780.84C265.573 780.84 118.25 635.55 118.25 456.34C118.25 277.13 265.573 131.84 447.321 131.84C629.068 131.84 776.392 277.13 776.392 456.34Z" stroke="#5F6268" stroke-opacity="0.2"/>
<circle cx="455" cy="455" r="454.5" stroke="#5F6268" stroke-opacity="0.08"/>
<path d="M429 478.606C425.985 476.587 424 473.151 424 469.25C424 463.391 428.479 458.578 434.199 458.048C435.37 450.93 441.551 445.5 449 445.5C456.449 445.5 462.63 450.93 463.801 458.048C469.521 458.578 474 463.391 474 469.25C474 473.151 472.015 476.587 469 478.606M439 478L449 468M449 468L459 478M449 468V490.5" stroke="#5F6268" stroke-width="2" stroke-linecap="round" stroke-linejoin="round"/>
</svg>
