<svg width="550" height="400" viewBox="0 0 550 400" fill="none" xmlns="http://www.w3.org/2000/svg">
<path fill-rule="evenodd" clip-rule="evenodd" d="M139.85 115.046C139.85 108.39 145.242 103 151.905 103H192.403C202.092 103 209.939 110.835 209.939 120.526V227.842C209.939 237.517 202.099 245.369 192.438 245.369H99.3132C92.6692 245.369 87.2832 239.967 87.2832 233.322C87.2832 226.662 92.6692 221.276 99.3442 221.276H162.837C167.073 221.276 170.514 217.835 170.514 213.61C170.514 209.369 167.09 205.944 162.835 205.944H129.999C123.346 205.944 117.947 200.545 117.947 193.897C117.947 187.245 123.33 181.85 129.975 181.85H145.311C149.55 181.85 152.992 178.408 152.992 174.184C152.992 169.959 149.552 166.518 145.345 166.518H73.0651C66.406 166.518 61 161.121 61 154.471C61 147.814 66.376 142.425 73.0421 142.425H169.426C173.65 142.425 177.085 138.985 177.085 134.759C177.085 130.534 173.641 127.093 169.428 127.093H151.901C145.248 127.093 139.85 121.693 139.85 115.046Z" fill="#8863E7"/>
<path fill-rule="evenodd" clip-rule="evenodd" d="M74.1411 115.046C74.1411 108.391 79.5421 103 86.2021 103H114.647C121.304 103 126.708 108.398 126.708 115.046C126.708 121.702 121.307 127.093 114.647 127.093H86.2021C79.5451 127.093 74.1411 121.695 74.1411 115.046Z" fill="#24A6E9"/>
<path fill-rule="evenodd" clip-rule="evenodd" d="M92.7662 205.944C99.4162 205.944 104.805 200.55 104.805 193.897C104.805 187.251 99.4142 181.85 92.7662 181.85H77.4191C70.769 181.85 65.38 187.244 65.38 193.897C65.38 200.543 70.772 205.944 77.4191 205.944H92.7662Z" fill="#FFA23E"/>
<path d="M261.031 219.633C260.826 219.633 260.653 219.562 260.511 219.42C260.36 219.269 260.284 219.091 260.284 218.887V208.174C260.284 207.064 259.893 206.117 259.112 205.336C258.321 204.545 257.375 204.15 256.274 204.15H251.503C250.402 204.15 249.456 204.545 248.665 205.336C247.883 206.117 247.492 207.064 247.492 208.174V218.887C247.492 219.091 247.417 219.269 247.266 219.42C247.124 219.562 246.951 219.633 246.746 219.633C246.542 219.633 246.364 219.562 246.213 219.42C246.071 219.269 246 219.091 246 218.887V208.174C246 206.655 246.537 205.358 247.612 204.283C248.687 203.208 249.984 202.671 251.503 202.671H256.274C257.793 202.671 259.09 203.208 260.164 204.283C261.239 205.358 261.777 206.655 261.777 208.174V218.887C261.777 219.091 261.701 219.269 261.55 219.42C261.408 219.562 261.235 219.633 261.031 219.633Z" fill="#5F6268"/>
<path d="M284.395 219.633C284.191 219.633 284.013 219.562 283.862 219.42C283.72 219.269 283.649 219.091 283.649 218.887V203.417C283.649 203.213 283.72 203.035 283.862 202.884C284.013 202.742 284.191 202.671 284.395 202.671C284.599 202.671 284.772 202.742 284.914 202.884C285.066 203.035 285.141 203.213 285.141 203.417V218.141H298.679C298.883 218.141 299.057 218.216 299.199 218.367C299.35 218.51 299.425 218.683 299.425 218.887C299.425 219.091 299.35 219.269 299.199 219.42C299.057 219.562 298.883 219.633 298.679 219.633H284.395Z" fill="#5F6268"/>
<path d="M324.429 219.633C323.567 219.633 322.83 219.327 322.217 218.714C321.604 218.101 321.297 217.364 321.297 216.502V205.789C321.297 204.927 321.604 204.194 322.217 203.59C322.83 202.977 323.567 202.671 324.429 202.671H336.328C336.532 202.671 336.705 202.742 336.847 202.884C336.998 203.035 337.074 203.213 337.074 203.417C337.074 203.621 336.998 203.794 336.847 203.937C336.705 204.079 336.532 204.15 336.328 204.15H324.429C323.976 204.15 323.589 204.314 323.269 204.643C322.95 204.963 322.79 205.345 322.79 205.789V216.502C322.79 216.955 322.95 217.341 323.269 217.661C323.589 217.981 323.976 218.141 324.429 218.141H336.328C336.532 218.141 336.705 218.216 336.847 218.367C336.998 218.51 337.074 218.683 337.074 218.887C337.074 219.091 336.998 219.269 336.847 219.42C336.705 219.562 336.532 219.633 336.328 219.633H324.429Z" fill="#5F6268"/>
<path d="M373.976 202.671C373.772 202.671 373.599 202.742 373.457 202.884C373.306 203.035 373.23 203.213 373.23 203.417V210.413H360.438V203.417C360.438 203.213 360.363 203.035 360.212 202.884C360.07 202.742 359.896 202.671 359.692 202.671C359.488 202.671 359.31 202.742 359.159 202.884C359.017 203.035 358.946 203.213 358.946 203.417V218.887C358.946 219.091 359.017 219.269 359.159 219.42C359.31 219.562 359.488 219.633 359.692 219.633C359.896 219.633 360.07 219.562 360.212 219.42C360.363 219.269 360.438 219.091 360.438 218.887V211.892H373.23V218.887C373.23 219.091 373.306 219.269 373.457 219.42C373.599 219.562 373.772 219.633 373.976 219.633C374.181 219.633 374.354 219.562 374.496 219.42C374.647 219.269 374.723 219.091 374.723 218.887V203.417C374.723 203.213 374.647 203.035 374.496 202.884C374.354 202.742 374.181 202.671 373.976 202.671Z" fill="#5F6268"/>
<path d="M397.341 218.141C397.136 218.141 396.959 218.216 396.808 218.367C396.666 218.51 396.595 218.683 396.595 218.887C396.595 219.091 396.666 219.269 396.808 219.42C396.959 219.562 397.136 219.633 397.341 219.633H411.625C411.829 219.633 412.003 219.562 412.145 219.42C412.296 219.269 412.371 219.091 412.371 218.887C412.371 218.683 412.296 218.51 412.145 218.367C412.003 218.216 411.829 218.141 411.625 218.141H397.341ZM411.625 204.15C411.829 204.15 412.003 204.079 412.145 203.937C412.296 203.794 412.371 203.621 412.371 203.417C412.371 203.213 412.296 203.035 412.145 202.884C412.003 202.742 411.829 202.671 411.625 202.671H397.341C397.136 202.671 396.959 202.742 396.808 202.884C396.666 203.035 396.595 203.213 396.595 203.417C396.595 203.621 396.666 203.794 396.808 203.937C396.959 204.079 397.136 204.15 397.341 204.15H411.625ZM397.341 210.413C397.136 210.413 396.959 210.484 396.808 210.626C396.666 210.768 396.595 210.941 396.595 211.145C396.595 211.359 396.666 211.536 396.808 211.678C396.959 211.821 397.136 211.892 397.341 211.892H411.625C411.829 211.892 412.003 211.821 412.145 211.678C412.296 211.536 412.371 211.359 412.371 211.145C412.371 210.941 412.296 210.768 412.145 210.626C412.003 210.484 411.829 210.413 411.625 210.413H397.341Z" fill="#5F6268"/>
<path d="M452.369 219.633C452.165 219.633 451.987 219.562 451.836 219.42C451.694 219.269 451.623 219.092 451.623 218.887V205.123L444.534 211.692C444.392 211.825 444.223 211.892 444.028 211.892C443.832 211.892 443.664 211.825 443.521 211.692L436.446 205.123V218.887C436.446 219.092 436.37 219.269 436.219 219.42C436.077 219.562 435.904 219.633 435.7 219.633C435.495 219.633 435.318 219.562 435.167 219.42C435.025 219.269 434.954 219.092 434.954 218.887V203.417C434.954 203.088 435.105 202.857 435.407 202.724C435.7 202.6 435.966 202.649 436.206 202.871L444.028 210.133L451.863 202.871C452.094 202.649 452.36 202.6 452.662 202.724C452.964 202.857 453.115 203.088 453.115 203.417V218.887C453.115 219.092 453.04 219.269 452.889 219.42C452.747 219.562 452.574 219.633 452.369 219.633Z" fill="#5F6268"/>
<path d="M490.728 202.671C490.524 202.671 490.351 202.742 490.209 202.884C490.058 203.035 489.982 203.213 489.982 203.417V208.774C489.982 209.227 489.822 209.613 489.502 209.933C489.183 210.253 488.796 210.413 488.343 210.413H478.829C478.376 210.413 477.99 210.253 477.67 209.933C477.35 209.613 477.19 209.227 477.19 208.774V203.417C477.19 203.213 477.115 203.035 476.964 202.884C476.821 202.742 476.648 202.671 476.444 202.671C476.24 202.671 476.062 202.742 475.911 202.884C475.769 203.035 475.698 203.213 475.698 203.417V208.774C475.698 209.635 476.004 210.368 476.617 210.972C477.23 211.585 477.967 211.892 478.829 211.892H482.84V218.887C482.84 219.091 482.911 219.269 483.053 219.42C483.204 219.562 483.382 219.633 483.586 219.633C483.79 219.633 483.964 219.562 484.106 219.42C484.257 219.269 484.332 219.091 484.332 218.887V211.892H488.343C489.205 211.892 489.942 211.585 490.555 210.972C491.168 210.368 491.474 209.635 491.474 208.774V203.417C491.474 203.213 491.399 203.035 491.248 202.884C491.106 202.742 490.933 202.671 490.728 202.671Z" fill="#5F6268"/>
<path d="M252.316 188.369C251.125 188.369 250.094 187.948 249.223 187.106C248.381 186.235 247.96 185.189 247.96 183.97V158.706C247.96 157.487 248.381 156.456 249.223 155.614C250.094 154.743 251.125 154.307 252.316 154.307H284.418C286.712 154.307 288.658 153.508 290.255 151.911C291.881 150.285 292.694 148.325 292.694 146.031C292.694 143.766 291.881 141.82 290.255 140.194C288.658 138.568 286.712 137.755 284.418 137.755H250.399C249.18 137.755 248.134 137.334 247.263 136.492C246.421 135.65 246 134.619 246 133.399C246 132.18 246.421 131.149 247.263 130.307C248.134 129.436 249.18 129 250.399 129H284.418C289.122 129 293.144 130.67 296.483 134.009C299.794 137.349 301.449 141.356 301.449 146.031C301.449 150.735 299.794 154.757 296.483 158.097C293.144 161.407 289.122 163.062 284.418 163.062H256.715V183.97C256.715 185.189 256.28 186.235 255.408 187.106C254.566 187.948 253.535 188.369 252.316 188.369Z" fill="#5F6268"/>
<path d="M312.818 188.369C311.598 188.369 310.553 187.948 309.681 187.106C308.839 186.235 308.418 185.189 308.418 183.97V133.399C308.418 132.18 308.839 131.149 309.681 130.307C310.553 129.436 311.598 129 312.818 129C314.008 129 315.039 129.436 315.91 130.307C316.752 131.149 317.173 132.18 317.173 133.399V183.97C317.173 185.189 316.752 186.235 315.91 187.106C315.039 187.948 314.008 188.369 312.818 188.369Z" fill="#5F6268"/>
<path d="M379.592 133.399C379.592 132.18 379.171 131.149 378.328 130.307C377.457 129.436 376.426 129 375.236 129C374.016 129 372.985 129.436 372.143 130.307C371.272 131.149 370.837 132.18 370.837 133.399V143.113C370.837 146.22 369.748 148.862 367.57 151.04C365.392 153.218 362.749 154.307 359.642 154.307H344.092C341.014 154.307 338.371 153.218 336.165 151.04C333.987 148.862 332.898 146.22 332.898 143.113V133.399C332.898 132.18 332.477 131.149 331.635 130.307C330.763 129.436 329.733 129 328.542 129C327.322 129 326.277 129.436 325.406 130.307C324.564 131.149 324.143 132.18 324.143 133.399V143.113C324.143 149.501 326.64 154.699 331.635 158.706C326.64 162.714 324.143 167.897 324.143 174.257V183.97C324.143 185.19 324.564 186.235 325.406 187.106C326.277 187.948 327.322 188.369 328.542 188.369C329.733 188.369 330.763 187.948 331.635 187.106C332.477 186.235 332.898 185.19 332.898 183.97V174.257C332.898 171.178 333.987 168.55 336.165 166.373C338.371 164.166 341.014 163.062 344.092 163.062H359.642C362.749 163.062 365.392 164.166 367.57 166.373C369.748 168.55 370.837 171.178 370.837 174.257V183.97C370.837 185.19 371.272 186.235 372.143 187.106C372.985 187.948 374.016 188.369 375.236 188.369C376.426 188.369 377.457 187.948 378.328 187.106C379.171 186.235 379.592 185.19 379.592 183.97V174.257C379.592 167.897 377.094 162.714 372.1 158.706C377.094 154.699 379.592 149.501 379.592 143.113V133.399Z" fill="#5F6268"/>
<path d="M390.96 179.614C389.741 179.614 388.695 180.035 387.824 180.877C386.982 181.748 386.561 182.779 386.561 183.97C386.561 185.189 386.982 186.235 387.824 187.106C388.695 187.948 389.741 188.369 390.96 188.369H437.654C438.845 188.369 439.876 187.948 440.747 187.106C441.589 186.235 442.01 185.189 442.01 183.97C442.01 182.779 441.589 181.748 440.747 180.877C439.876 180.035 438.845 179.614 437.654 179.614H390.96ZM437.654 137.755C438.845 137.755 439.876 137.334 440.747 136.492C441.589 135.65 442.01 134.619 442.01 133.399C442.01 132.18 441.589 131.149 440.747 130.307C439.876 129.436 438.845 129 437.654 129H390.96C389.741 129 388.695 129.436 387.824 130.307C386.982 131.149 386.561 132.18 386.561 133.399C386.561 134.619 386.982 135.65 387.824 136.492C388.695 137.334 389.741 137.755 390.96 137.755H437.654ZM390.96 154.307C389.741 154.307 388.695 154.743 387.824 155.614C386.982 156.456 386.561 157.487 386.561 158.706C386.561 159.897 386.982 160.928 387.824 161.799C388.695 162.641 389.741 163.062 390.96 163.062H437.654C438.845 163.062 439.876 162.641 440.747 161.799C441.589 160.928 442.01 159.897 442.01 158.706C442.01 157.487 441.589 156.456 440.747 155.614C439.876 154.743 438.845 154.307 437.654 154.307H390.96Z" fill="#5F6268"/>
<path d="M453.378 188.369C452.159 188.369 451.113 187.948 450.242 187.106C449.4 186.235 448.979 185.189 448.979 183.97V133.399C448.979 132.18 449.4 131.149 450.242 130.307C451.113 129.436 452.159 129 453.378 129C454.569 129 455.6 129.436 456.471 130.307C457.313 131.149 457.734 132.18 457.734 133.399V179.614H500.072C501.263 179.614 502.294 180.035 503.165 180.877C504.007 181.748 504.428 182.779 504.428 183.97C504.428 185.189 504.007 186.235 503.165 187.106C502.294 187.948 501.263 188.369 500.072 188.369H453.378Z" fill="#5F6268"/>
</svg>
