<svg width="258" height="165" viewBox="0 0 258 165" fill="none" xmlns="http://www.w3.org/2000/svg">
<path fill-rule="evenodd" clip-rule="evenodd" d="M65.6026 47.4566C65.6026 44.7109 68.1319 42.4875 71.257 42.4875H90.2544C94.7994 42.4875 98.4804 45.7195 98.4804 49.7171V93.9848C98.4804 97.9757 94.8027 101.215 90.2708 101.215H46.5869C43.4703 101.215 40.9437 98.9864 40.9437 96.2453C40.9437 93.498 43.4703 91.2763 46.6015 91.2763H76.3852C78.3722 91.2763 79.9864 89.8568 79.9864 88.114C79.9864 86.3646 78.3802 84.9518 76.3842 84.9518H60.9815C57.8607 84.9518 55.328 82.7247 55.328 79.9824C55.328 77.2388 57.8532 75.0134 60.9703 75.0134H68.1643C70.1523 75.0134 71.7669 73.5935 71.7669 71.8511C71.7669 70.1083 70.1533 68.6889 68.1802 68.6889H34.2742C31.1505 68.6889 28.6145 66.4626 28.6145 63.7195C28.6145 60.9734 31.1364 58.7505 34.2634 58.7505H79.476C81.4575 58.7505 83.0688 57.3315 83.0688 55.5882C83.0688 53.8454 81.4533 52.426 79.477 52.426H71.2552C68.1343 52.426 65.6026 50.1985 65.6026 47.4566Z" fill="#8863E7"/>
<path fill-rule="evenodd" clip-rule="evenodd" d="M34.7789 47.4566C34.7789 44.7113 37.3125 42.4875 40.4366 42.4875H53.78C56.9028 42.4875 59.4377 44.7142 59.4377 47.4566C59.4377 50.2022 56.9042 52.426 53.78 52.426H40.4366C37.3139 52.426 34.7789 50.1993 34.7789 47.4566Z" fill="#24A6E9"/>
<path fill-rule="evenodd" clip-rule="evenodd" d="M43.5158 84.9518C46.6352 84.9518 49.1632 82.7268 49.1632 79.9824C49.1632 77.2414 46.6343 75.0134 43.5158 75.0134H36.3166C33.1971 75.0134 30.6692 77.2385 30.6692 79.9824C30.6692 82.7239 33.1985 84.9518 36.3166 84.9518H43.5158Z" fill="#FFA23E"/>
<path d="M122.447 90.5986C122.351 90.5986 122.27 90.5693 122.203 90.5107C122.132 90.4484 122.097 90.3751 122.097 90.2908V85.8716C122.097 85.4136 121.914 85.0233 121.547 84.7009C121.176 84.3747 120.732 84.2117 120.216 84.2117H117.978C117.461 84.2117 117.017 84.3747 116.646 84.7009C116.28 85.0233 116.096 85.4136 116.096 85.8716V90.2908C116.096 90.3751 116.061 90.4484 115.99 90.5107C115.924 90.5693 115.842 90.5986 115.746 90.5986C115.651 90.5986 115.567 90.5693 115.496 90.5107C115.43 90.4484 115.396 90.3751 115.396 90.2908V85.8716C115.396 85.245 115.648 84.71 116.153 84.2666C116.657 83.8233 117.265 83.6016 117.978 83.6016H120.216C120.928 83.6016 121.537 83.8233 122.041 84.2666C122.545 84.71 122.797 85.245 122.797 85.8716V90.2908C122.797 90.3751 122.762 90.4484 122.691 90.5107C122.624 90.5693 122.543 90.5986 122.447 90.5986Z" fill="white"/>
<path d="M133.407 90.5989C133.311 90.5989 133.228 90.5696 133.157 90.5109C133.09 90.4486 133.057 90.3754 133.057 90.2911V83.9096C133.057 83.8253 133.09 83.752 133.157 83.6897C133.228 83.6311 133.311 83.6018 133.407 83.6018C133.503 83.6018 133.584 83.6311 133.651 83.6897C133.722 83.752 133.757 83.8253 133.757 83.9096V89.9833H140.108C140.204 89.9833 140.285 90.0144 140.351 90.0767C140.422 90.1353 140.458 90.2068 140.458 90.2911C140.458 90.3754 140.422 90.4486 140.351 90.5109C140.285 90.5696 140.204 90.5989 140.108 90.5989H133.407Z" fill="white"/>
<path d="M152.187 90.5989C151.782 90.5989 151.436 90.4725 151.149 90.2196C150.861 89.9668 150.718 89.6626 150.718 89.3072V84.888C150.718 84.5325 150.861 84.2302 151.149 83.9811C151.436 83.7282 151.782 83.6018 152.187 83.6018H157.768C157.864 83.6018 157.945 83.6311 158.012 83.6897C158.083 83.752 158.118 83.8253 158.118 83.9096C158.118 83.9939 158.083 84.0653 158.012 84.124C157.945 84.1826 157.864 84.2119 157.768 84.2119H152.187C151.974 84.2119 151.793 84.2797 151.643 84.4153C151.493 84.5472 151.418 84.7048 151.418 84.888V89.3072C151.418 89.4941 151.493 89.6535 151.643 89.7854C151.793 89.9173 151.974 89.9833 152.187 89.9833H157.768C157.864 89.9833 157.945 90.0144 158.012 90.0767C158.083 90.1353 158.118 90.2068 158.118 90.2911C158.118 90.3754 158.083 90.4486 158.012 90.5109C157.945 90.5696 157.864 90.5989 157.768 90.5989H152.187Z" fill="white"/>
<path d="M175.429 83.6018C175.333 83.6018 175.252 83.6311 175.185 83.6897C175.114 83.752 175.079 83.8253 175.079 83.9096V86.7953H169.078V83.9096C169.078 83.8253 169.043 83.752 168.972 83.6897C168.905 83.6311 168.824 83.6018 168.728 83.6018C168.632 83.6018 168.549 83.6311 168.478 83.6897C168.412 83.752 168.378 83.8253 168.378 83.9096V90.2911C168.378 90.3754 168.412 90.4486 168.478 90.5109C168.549 90.5696 168.632 90.5989 168.728 90.5989C168.824 90.5989 168.905 90.5696 168.972 90.5109C169.043 90.4486 169.078 90.3754 169.078 90.2911V87.4054H175.079V90.2911C175.079 90.3754 175.114 90.4486 175.185 90.5109C175.252 90.5696 175.333 90.5989 175.429 90.5989C175.525 90.5989 175.606 90.5696 175.673 90.5109C175.744 90.4486 175.779 90.3754 175.779 90.2911V83.9096C175.779 83.8253 175.744 83.752 175.673 83.6897C175.606 83.6311 175.525 83.6018 175.429 83.6018Z" fill="white"/>
<path d="M186.389 89.9833C186.293 89.9833 186.21 90.0144 186.139 90.0767C186.072 90.1353 186.039 90.2068 186.039 90.2911C186.039 90.3754 186.072 90.4486 186.139 90.5109C186.21 90.5696 186.293 90.5989 186.389 90.5989H193.09C193.185 90.5989 193.267 90.5696 193.333 90.5109C193.404 90.4486 193.44 90.3754 193.44 90.2911C193.44 90.2068 193.404 90.1353 193.333 90.0767C193.267 90.0144 193.185 89.9833 193.09 89.9833H186.389ZM193.09 84.2119C193.185 84.2119 193.267 84.1826 193.333 84.124C193.404 84.0653 193.44 83.9939 193.44 83.9096C193.44 83.8253 193.404 83.752 193.333 83.6897C193.267 83.6311 193.185 83.6018 193.09 83.6018H186.389C186.293 83.6018 186.21 83.6311 186.139 83.6897C186.072 83.752 186.039 83.8253 186.039 83.9096C186.039 83.9939 186.072 84.0653 186.139 84.124C186.21 84.1826 186.293 84.2119 186.389 84.2119H193.09ZM186.389 86.7953C186.293 86.7953 186.21 86.8246 186.139 86.8832C186.072 86.9419 186.039 87.0133 186.039 87.0976C186.039 87.1855 186.072 87.2588 186.139 87.3175C186.21 87.3761 186.293 87.4054 186.389 87.4054H193.09C193.185 87.4054 193.267 87.3761 193.333 87.3175C193.404 87.2588 193.44 87.1855 193.44 87.0976C193.44 87.0133 193.404 86.9419 193.333 86.8832C193.267 86.8246 193.185 86.7953 193.09 86.7953H186.389Z" fill="white"/>
<path d="M212.202 90.5987C212.106 90.5987 212.023 90.5694 211.952 90.5107C211.886 90.4484 211.852 90.3752 211.852 90.2909V84.613L208.527 87.3227C208.46 87.3777 208.381 87.4052 208.289 87.4052C208.198 87.4052 208.119 87.3777 208.052 87.3227L204.733 84.613V90.2909C204.733 90.3752 204.697 90.4484 204.627 90.5107C204.56 90.5694 204.479 90.5987 204.383 90.5987C204.287 90.5987 204.204 90.5694 204.133 90.5107C204.066 90.4484 204.033 90.3752 204.033 90.2909V83.9094C204.033 83.7738 204.104 83.6785 204.245 83.6236C204.383 83.5723 204.508 83.5924 204.62 83.684L208.289 86.6796L211.965 83.684C212.073 83.5924 212.198 83.5723 212.34 83.6236C212.481 83.6785 212.552 83.7738 212.552 83.9094V90.2909C212.552 90.3752 212.517 90.4484 212.446 90.5107C212.379 90.5694 212.298 90.5987 212.202 90.5987Z" fill="white"/>
<path d="M230.196 83.6018C230.1 83.6018 230.019 83.6311 229.952 83.6897C229.882 83.752 229.846 83.8253 229.846 83.9096V86.1192C229.846 86.3061 229.771 86.4655 229.621 86.5974C229.471 86.7293 229.29 86.7953 229.077 86.7953H224.614C224.402 86.7953 224.221 86.7293 224.071 86.5974C223.921 86.4655 223.846 86.3061 223.846 86.1192V83.9096C223.846 83.8253 223.81 83.752 223.739 83.6897C223.673 83.6311 223.591 83.6018 223.496 83.6018C223.4 83.6018 223.316 83.6311 223.245 83.6897C223.179 83.752 223.145 83.8253 223.145 83.9096V86.1192C223.145 86.4747 223.289 86.777 223.577 87.0261C223.864 87.279 224.21 87.4054 224.614 87.4054H226.496V90.2911C226.496 90.3754 226.529 90.4486 226.596 90.5109C226.667 90.5696 226.75 90.5989 226.846 90.5989C226.942 90.5989 227.023 90.5696 227.09 90.5109C227.16 90.4486 227.196 90.3754 227.196 90.2911V87.4054H229.077C229.482 87.4054 229.827 87.279 230.115 87.0261C230.402 86.777 230.546 86.4747 230.546 86.1192V83.9096C230.546 83.8253 230.511 83.752 230.44 83.6897C230.373 83.6311 230.292 83.6018 230.196 83.6018Z" fill="white"/>
<path d="M118.359 77.7022C117.801 77.7022 117.317 77.5285 116.908 77.1811C116.513 76.8218 116.316 76.3906 116.316 75.8875V65.4663C116.316 64.9632 116.513 64.538 116.908 64.1906C117.317 63.8312 117.801 63.6516 118.359 63.6516H133.418C134.494 63.6516 135.407 63.3222 136.156 62.6633C136.919 61.9926 137.3 61.184 137.3 60.2377C137.3 59.3034 136.919 58.5009 136.156 57.8301C135.407 57.1593 134.494 56.8239 133.418 56.8239H117.46C116.888 56.8239 116.398 56.6502 115.989 56.3028C115.594 55.9554 115.396 55.5302 115.396 55.0271C115.396 54.524 115.594 54.0988 115.989 53.7514C116.398 53.3921 116.888 53.2124 117.46 53.2124H133.418C135.625 53.2124 137.511 53.9012 139.078 55.2787C140.631 56.6562 141.407 58.3092 141.407 60.2377C141.407 62.1782 140.631 63.8372 139.078 65.2147C137.511 66.5803 135.625 67.263 133.418 67.263H120.423V75.8875C120.423 76.3906 120.218 76.8218 119.81 77.1811C119.415 77.5285 118.931 77.7022 118.359 77.7022Z" fill="white"/>
<path d="M146.74 77.7022C146.168 77.7022 145.677 77.5285 145.269 77.1811C144.874 76.8218 144.676 76.3906 144.676 75.8875V55.0271C144.676 54.524 144.874 54.0988 145.269 53.7514C145.677 53.3921 146.168 53.2124 146.74 53.2124C147.298 53.2124 147.782 53.3921 148.191 53.7514C148.586 54.0988 148.783 54.524 148.783 55.0271V75.8875C148.783 76.3906 148.586 76.8218 148.191 77.1811C147.782 77.5285 147.298 77.7022 146.74 77.7022Z" fill="white"/>
<path d="M178.063 55.0271C178.063 54.524 177.865 54.0988 177.47 53.7514C177.062 53.3921 176.578 53.2124 176.02 53.2124C175.448 53.2124 174.964 53.3921 174.569 53.7514C174.16 54.0988 173.956 54.524 173.956 55.0271V59.0339C173.956 60.3156 173.445 61.4056 172.424 62.304C171.402 63.2024 170.162 63.6516 168.705 63.6516H161.41C159.967 63.6516 158.727 63.2024 157.692 62.304C156.67 61.4056 156.159 60.3156 156.159 59.0339V55.0271C156.159 54.524 155.962 54.0988 155.567 53.7514C155.158 53.3921 154.675 53.2124 154.116 53.2124C153.544 53.2124 153.054 53.3921 152.645 53.7514C152.25 54.0988 152.052 54.524 152.052 55.0271V59.0339C152.052 61.6691 153.224 63.8133 155.567 65.4663C153.224 67.1193 152.052 69.2575 152.052 71.8807V75.8875C152.052 76.3906 152.25 76.8218 152.645 77.1811C153.054 77.5285 153.544 77.7022 154.116 77.7022C154.675 77.7022 155.158 77.5285 155.567 77.1811C155.962 76.8218 156.159 76.3906 156.159 75.8875V71.8807C156.159 70.611 156.67 69.527 157.692 68.6286C158.727 67.7182 159.967 67.263 161.41 67.263H168.705C170.162 67.263 171.402 67.7182 172.424 68.6286C173.445 69.527 173.956 70.611 173.956 71.8807V75.8875C173.956 76.3906 174.16 76.8218 174.569 77.1811C174.964 77.5285 175.448 77.7022 176.02 77.7022C176.578 77.7022 177.062 77.5285 177.47 77.1811C177.865 76.8218 178.063 76.3906 178.063 75.8875V71.8807C178.063 69.2575 176.892 67.1193 174.549 65.4663C176.892 63.8133 178.063 61.6691 178.063 59.0339V55.0271Z" fill="white"/>
<path d="M183.396 74.0907C182.824 74.0907 182.333 74.2644 181.925 74.6118C181.53 74.9711 181.332 75.3964 181.332 75.8875C181.332 76.3906 181.53 76.8218 181.925 77.1811C182.333 77.5285 182.824 77.7022 183.396 77.7022H205.3C205.858 77.7022 206.342 77.5285 206.75 77.1811C207.145 76.8218 207.343 76.3906 207.343 75.8875C207.343 75.3964 207.145 74.9711 206.75 74.6118C206.342 74.2644 205.858 74.0907 205.3 74.0907H183.396ZM205.3 56.8239C205.858 56.8239 206.342 56.6502 206.75 56.3028C207.145 55.9554 207.343 55.5302 207.343 55.0271C207.343 54.524 207.145 54.0988 206.75 53.7514C206.342 53.3921 205.858 53.2124 205.3 53.2124H183.396C182.824 53.2124 182.333 53.3921 181.925 53.7514C181.53 54.0988 181.332 54.524 181.332 55.0271C181.332 55.5302 181.53 55.9554 181.925 56.3028C182.333 56.6502 182.824 56.8239 183.396 56.8239H205.3ZM183.396 63.6516C182.824 63.6516 182.333 63.8312 181.925 64.1906C181.53 64.538 181.332 64.9632 181.332 65.4663C181.332 65.9574 181.53 66.3826 181.925 66.742C182.333 67.0894 182.824 67.263 183.396 67.263H205.3C205.858 67.263 206.342 67.0894 206.75 66.742C207.145 66.3826 207.343 65.9574 207.343 65.4663C207.343 64.9632 207.145 64.538 206.75 64.1906C206.342 63.8312 205.858 63.6516 205.3 63.6516H183.396Z" fill="white"/>
<path d="M212.676 77.7022C212.104 77.7022 211.613 77.5285 211.205 77.1811C210.81 76.8218 210.612 76.3906 210.612 75.8875V55.0271C210.612 54.524 210.81 54.0988 211.205 53.7514C211.613 53.3921 212.104 53.2124 212.676 53.2124C213.234 53.2124 213.718 53.3921 214.126 53.7514C214.521 54.0988 214.719 54.524 214.719 55.0271V74.0907H234.579C235.138 74.0907 235.621 74.2644 236.03 74.6118C236.425 74.9711 236.623 75.3964 236.623 75.8875C236.623 76.3906 236.425 76.8218 236.03 77.1811C235.621 77.5285 235.138 77.7022 234.579 77.7022H212.676Z" fill="white"/>
</svg>
