<svg width="41" height="42" viewBox="0 0 41 42" fill="none" xmlns="http://www.w3.org/2000/svg">
<g id="Group">
<g id="Group_2">
<path id="Vector" d="M40.1264 19.4861C28.0185 15.6209 23.3267 6.86653 21.5105 0.902312C21.1321 -0.300771 19.4421 -0.300771 19.0637 0.902312C15.4566 12.6772 6.80448 17.5407 0.876661 19.5117C-0.308902 19.8957 -0.283678 21.6107 0.901885 21.9691C11.9755 25.3479 16.8944 34.8958 18.9628 41.116C19.3664 42.3447 21.0565 42.2679 21.4096 41.0392C24.7393 28.5732 33.9463 23.7865 40.0759 21.9691C41.2867 21.6107 41.3119 19.8701 40.1264 19.4861ZM27.2617 21.3291C25.1429 21.9691 21.9646 23.6073 20.8042 27.9333C20.6781 28.3684 20.0979 28.394 19.9718 27.9589C19.2655 25.8087 17.5754 22.5066 13.7413 21.3291C13.3377 21.2011 13.3125 20.6124 13.7413 20.4844C15.7845 19.7933 18.7862 18.1294 20.0222 14.0594C20.1484 13.6499 20.7285 13.6499 20.8547 14.0594C21.4853 16.1072 23.0997 19.1533 27.287 20.4844C27.6906 20.6124 27.6906 21.2011 27.2617 21.3291Z" fill="url(#paint0_linear_32_893)"/>
</g>
</g>
<defs>
<linearGradient id="paint0_linear_32_893" x1="0.0113004" y1="20.9963" x2="41.0027" y2="20.9963" gradientUnits="userSpaceOnUse">
<stop stop-color="#5931BA"/>
<stop offset="1" stop-color="#597EBA"/>
</linearGradient>
</defs>
</svg>
